# xmcd
#
# Track frame offsets: 
#        150
#        20838
#        33461
#        55317
#        77265
#        95230
#        136065
#        171611
#        198054
#        222576
#        254185
#        278509
#        293349
#        318223
#
# Disc length: 4704 seconds
#
# Revision: 3
# Processed by: cddbd v1.5.2PL0 Copyright (c) Steve Scherf et al.
# Submitted via: ExactAudioCopyFreeDBPlugin 1.0
#
DISCID=cc125e0e
DTITLE=Various Artist - Don't Fight The Feeling:  Aretha Franklin and K
DTITLE=ing Curtis Live at Fillmore West
DYEAR=2005
DGENRE=Soul
TTITLE0=Aretha Franklin - Share Your Love with Me
TTITLE1=Aretha Franklin - Eleanor Rigby
TTITLE2=Aretha Franklin - Make It with You
TTITLE3=Aretha Franklin - You're All I Need to Get By
TTITLE4=Aretha Franklin - Don't Play That Song
TTITLE5=Aretha Franklin - Dr. Feelgood
TTITLE6=Aretha Franklin - Spirit in the Dark
TTITLE7=Aretha Franklin - Spirit in the Dark (Reprise)
TTITLE8=The Memphis Horns - Knock on Wood
TTITLE9=King Curtis - Them Changes
TTITLE10=King Curtis - A Whiter Shade of Pale
TTITLE11=King Curtis - Ode to Billie Joe
TTITLE12=King Curtis - Soul Serenade
TTITLE13=King Curtis - Memphis Soul Stew
EXTD=
EXTT0=
EXTT1=
EXTT2=
EXTT3=
EXTT4=
EXTT5=
EXTT6=
EXTT7=
EXTT8=
EXTT9=
EXTT10=
EXTT11=
EXTT12=
EXTT13=
PLAYORDER=
